<?xml version="1.0" encoding="UTF-8" standalone="no"?>
<svg
   xmlns:dc="http://purl.org/dc/elements/1.1/"
   xmlns:cc="http://creativecommons.org/ns#"
   xmlns:rdf="http://www.w3.org/1999/02/22-rdf-syntax-ns#"
   xmlns:svg="http://www.w3.org/2000/svg"
   xmlns="http://www.w3.org/2000/svg"
   xmlns:sodipodi="http://sodipodi.sourceforge.net/DTD/sodipodi-0.dtd"
   xmlns:inkscape="http://www.inkscape.org/namespaces/inkscape"
   aria-hidden="true"
   data-prefix="fas"
   data-icon="map-marker-alt"
   class="svg-inline--fa fa-map-marker-alt fa-w-12"
   role="img"
   viewBox="0 0 391.55905 519.48627"
   version="1.1"
   id="svg827"
   sodipodi:docname="bokeh-map-marker.svg"
   inkscape:version="0.92.2 (5c3e80d, 2017-08-06)"
   width="391.55905"
   height="519.48627">
  <metadata
     id="metadata833">
    <rdf:RDF>
      <cc:Work
         rdf:about="">
        <dc:format>image/svg+xml</dc:format>
        <dc:type
           rdf:resource="http://purl.org/dc/dcmitype/StillImage" />
        <dc:title></dc:title>
      </cc:Work>
    </rdf:RDF>
  </metadata>
  <defs
     id="defs831" />
  <sodipodi:namedview
     pagecolor="#ffffff"
     bordercolor="#666666"
     borderopacity="1"
     objecttolerance="10"
     gridtolerance="10"
     guidetolerance="10"
     inkscape:pageopacity="0"
     inkscape:pageshadow="2"
     inkscape:window-width="1920"
     inkscape:window-height="1021"
     id="namedview829"
     showgrid="false"
     inkscape:measure-start="-185.69,311.887"
     inkscape:measure-end="410.441,158.648"
     inkscape:snap-global="false"
     inkscape:zoom="1.6640625"
     inkscape:cx="150.55781"
     inkscape:cy="315.84105"
     inkscape:window-x="1912"
     inkscape:window-y="303"
     inkscape:window-maximized="1"
     inkscape:current-layer="svg827" />
  <path
     d="M 176.04753,505.44953 C 30.749528,294.81053 3.7795277,273.19253 3.7795277,195.77953 3.7795277,89.740528 89.740528,3.7795277 195.77953,3.7795277 c 106.039,0 192,85.9610003 192,192.0000023 0,77.413 -26.97,99.031 -172.268,309.67 -9.535,13.774 -29.93,13.773 -39.464,0 z m 19.732,-229.67 c 44.183,0 80,-35.817 80,-80 0,-44.183 -35.817,-80 -80,-80 -44.183,0 -80,35.817 -80,80 0,44.183 35.817,80 80,80 z"
     id="path825"
     style="fill:none;fill-opacity:1;stroke:#000000;stroke-width:7.55905533;stroke-miterlimit:4;stroke-dasharray:none;stroke-opacity:1"
     inkscape:connector-curvature="0" />
  <g
     id="g1061"
     transform="matrix(10.254532,0,0,10.254532,22.356045,16.466882)">
    <g
       transform="translate(0,-262.86873)"
       id="layer1"
       inkscape:label="Layer 1" />
    <g
       style="display:inline"
       inkscape:label="Layer 2"
       id="layer2">
      <path
         inkscape:connector-curvature="0"
         id="path831"
         transform="scale(0.26458333)"
         d="M 64.5,0 A 64.499991,64.499991 0 0 0 51.509766,1.3300781 L 49.646484,24.707031 A 42.499995,42.499995 0 0 1 64.5,22 42.499995,42.499995 0 0 1 84.302734,26.939453 L 106.68359,15.8125 A 64.499991,64.499991 0 0 0 64.5,0 Z M 43.128906,3.7246094 A 64.499991,64.499991 0 0 0 3.5839844,43.392578 L 22.664062,57.306641 A 42.499995,42.499995 0 0 1 41.111328,29.042969 Z M 112.83203,21.873047 92.070312,32.193359 a 42.499995,42.499995 0 0 1 14.753908,28.736329 l 21.07812,15.017578 A 64.499991,64.499991 0 0 0 129,64.5 64.499991,64.499991 0 0 0 112.83203,21.873047 Z M 1.3417969,51.859375 A 64.499991,64.499991 0 0 0 0,64.5 64.499991,64.499991 0 0 0 16.431641,107.4082 L 37.716797,97.445312 A 42.499995,42.499995 0 0 1 22.089844,66.992188 Z M 106.48828,70.714844 A 42.499995,42.499995 0 0 1 87.232422,100.39453 L 84.744141,125.6875 A 64.499991,64.499991 0 0 0 125.74609,84.433594 Z M 45.880859,102.63672 22.669922,113.5 A 64.499991,64.499991 0 0 0 64.5,129 64.499991,64.499991 0 0 0 76.328125,127.86328 l 2.294922,-23.32812 A 42.499995,42.499995 0 0 1 64.5,107 42.499995,42.499995 0 0 1 45.880859,102.63672 Z"
         style="fill:#ff0000;fill-opacity:0;fill-rule:evenodd;stroke-width:1.69807744" />
      <g
         id="g1234">
        <g
           id="g1220"
           style="opacity:1">
          <g
             style="opacity:1"
             id="g1208">
            <g
               id="g1198">
              <g
                 transform="translate(-27.307039,-0.56653678)"
                 id="g1192">
                <circle
                   style="fill:#dedede;fill-opacity:1;fill-rule:evenodd;stroke-width:0.27249211"
                   id="path1176"
                   cx="44.240372"
                   cy="17.764454"
                   r="8.4666662" />
                <circle
                   style="fill:#737373;fill-opacity:1;fill-rule:evenodd;stroke-width:0.30095163"
                   id="path1178"
                   cx="44.240372"
                   cy="17.764452"
                   r="6.7468748" />
              </g>
              <circle
                 r="5.9257522"
                 cy="17.197508"
                 cx="16.933743"
                 id="path1184"
                 style="opacity:0.99299999;fill:#4b4b4b;fill-opacity:1;fill-rule:evenodd;stroke-width:0.2767441" />
            </g>
            <circle
               style="fill:#191919;fill-opacity:1;fill-rule:evenodd;stroke-width:0.28143576"
               id="path1200"
               cx="16.931377"
               cy="17.199873"
               r="3.3450227" />
          </g>
          <ellipse
             ry="1.7025564"
             rx="1.6424662"
             cy="14.722106"
             cx="15.703579"
             id="path1210"
             style="fill:#bebebe;fill-opacity:1;fill-rule:evenodd;stroke-width:0.27611426" />
        </g>
        <circle
           style="opacity:1;fill:#f0f0f0;fill-opacity:1;fill-rule:evenodd;stroke-width:0.28348213"
           id="path1222"
           cx="18.888363"
           cy="19.769686"
           r="0.90135342" />
      </g>
    </g>
  </g>
  <g
     inkscape:label="Layer 1"
     id="layer1-1"
     transform="matrix(8.789599,0,0,8.789599,45.64387,-2268.2072)" />
  <path
     inkscape:connector-curvature="0"
     id="path831-92"
     d="m 195.64387,42.303527 a 149.99998,149.99998 0 0 0 -30.20984,3.093205 l -4.33322,54.365007 a 98.837198,98.837198 0 0 1 34.54306,-6.295421 98.837198,98.837198 0 0 1 46.05287,11.487102 l 52.0485,-25.876637 A 149.99998,149.99998 0 0 0 195.64387,42.303527 Z m -49.70022,8.661882 A 149.99998,149.99998 0 0 0 53.978717,143.2165 l 44.372274,32.35829 a 98.837198,98.837198 0 0 1 42.900619,-65.72947 z m 162.10029,42.205669 -48.28306,24.000732 a 98.837198,98.837198 0 0 1 34.31141,66.82867 l 49.01888,34.9246 a 149.99998,149.99998 0 0 0 2.5527,-26.62155 149.99998,149.99998 0 0 0 -37.59993,-99.132452 z M 48.764328,162.90673 a 149.99998,149.99998 0 0 0 -3.120458,29.3968 149.99998,149.99998 0 0 0 38.213119,99.78651 L 133.35735,268.92053 A 98.837198,98.837198 0 0 1 97.0156,198.09932 Z m 244.526712,43.84992 a 98.837198,98.837198 0 0 1 -44.78107,69.02253 l -5.7867,58.82086 a 149.99998,149.99998 0 0 0 95.35337,-95.93932 z m -140.9475,74.23693 -53.978921,25.26344 a 149.99998,149.99998 0 0 0 97.279251,36.04651 149.99998,149.99998 0 0 0 27.50727,-2.64354 l 5.33703,-54.25144 a 98.837198,98.837198 0 0 1 -32.8443,5.73219 98.837198,98.837198 0 0 1 -43.30033,-10.14716 z"
     style="fill:#ff0000;fill-opacity:0;fill-rule:evenodd;stroke-width:3.94901729" />
  <g
     id="g1133"
     transform="translate(3.7795277,3.7795277)">
    <path
       style="display:inline;fill:#414141;fill-opacity:1;fill-rule:evenodd;stroke-width:3.94901729"
       d="M 142.16414,47.185884 A 149.99997,149.99997 0 0 0 50.199185,139.43698 l 44.372277,32.35828 A 98.837186,98.837186 0 0 1 137.4721,106.06578 Z"
       id="path831-4"
       inkscape:connector-curvature="0" />
    <path
       style="display:inline;fill:#a9a9a9;fill-opacity:1;fill-rule:evenodd;stroke-width:3.94901729"
       d="M 191.86434,38.523999 A 149.99997,149.99997 0 0 0 161.65451,41.6172 l -4.33321,54.365005 a 98.837186,98.837186 0 0 1 34.54304,-6.295418 98.837186,98.837186 0 0 1 46.05289,11.487103 l 52.0485,-25.876635 A 149.99997,149.99997 0 0 0 191.86434,38.523999 Z"
       id="path831-8"
       inkscape:connector-curvature="0" />
    <path
       style="display:inline;fill:#414141;fill-opacity:1;fill-rule:evenodd;stroke-width:3.94901729"
       d="m 304.26441,89.391542 -48.28307,24.000728 a 98.837186,98.837186 0 0 1 34.31142,66.82868 l 49.01888,34.92459 a 149.99997,149.99997 0 0 0 2.5527,-26.62154 149.99997,149.99997 0 0 0 -37.59993,-99.132458 z"
       id="path831-5"
       inkscape:connector-curvature="0" />
    <path
       style="display:inline;fill:#a9a9a9;fill-opacity:1;fill-rule:evenodd;stroke-width:3.94901729"
       d="m 289.51151,202.97712 a 98.837186,98.837186 0 0 1 -44.78107,69.02253 l -5.78669,58.82086 a 149.99997,149.99997 0 0 0 95.35337,-95.93932 z"
       id="path831-9"
       inkscape:connector-curvature="0" />
    <path
       style="display:inline;fill:#414141;fill-opacity:1;fill-rule:evenodd;stroke-width:3.94901729"
       d="m 118.55403,269.92843 v 0.37242 l 0.79488,-0.37242 z m 30.01,7.28561 -53.978934,25.26345 a 149.99997,149.99997 0 0 0 97.279254,36.04651 149.99997,149.99997 0 0 0 27.50725,-2.64354 l 5.33705,-54.25144 a 98.837186,98.837186 0 0 1 -32.8443,5.73218 98.837186,98.837186 0 0 1 -43.30032,-10.14716 z m -68.927143,10.57414 a 149.99997,149.99997 0 0 0 0.440579,0.52228 l 1.117372,-0.52228 z"
       id="path831-0"
       inkscape:connector-curvature="0" />
    <path
       style="display:inline;fill:#a9a9a9;fill-opacity:1;fill-rule:evenodd;stroke-width:3.94901729"
       d="m 44.98481,159.12719 a 149.99997,149.99997 0 0 0 -3.120465,29.3968 149.99997,149.99997 0 0 0 38.213115,99.78652 l 49.50037,-23.16952 A 98.837186,98.837186 0 0 1 93.236088,194.31977 Z m 87.22746,166.81957 -0.0677,0.0316 a 149.99997,149.99997 0 0 0 0.0677,0.036 z"
       id="path831-49"
       inkscape:connector-curvature="0" />
  </g>
</svg>
