<?xml version="1.0" encoding="UTF-8" standalone="no"?>
<svg
   xmlns:dc="http://purl.org/dc/elements/1.1/"
   xmlns:cc="http://creativecommons.org/ns#"
   xmlns:rdf="http://www.w3.org/1999/02/22-rdf-syntax-ns#"
   xmlns:svg="http://www.w3.org/2000/svg"
   xmlns="http://www.w3.org/2000/svg"
   xmlns:sodipodi="http://sodipodi.sourceforge.net/DTD/sodipodi-0.dtd"
   xmlns:inkscape="http://www.inkscape.org/namespaces/inkscape"
   id="svg8"
   version="1.1"
   viewBox="0 0 13.229166 13.229167"
   height="50"
   width="50"
   sodipodi:docname="site-logo2.svg"
   inkscape:version="0.92.2 (5c3e80d, 2017-08-06)">
  <sodipodi:namedview
     pagecolor="#ffffff"
     bordercolor="#666666"
     borderopacity="1"
     objecttolerance="10"
     gridtolerance="10"
     guidetolerance="10"
     inkscape:pageopacity="0"
     inkscape:pageshadow="2"
     inkscape:window-width="1920"
     inkscape:window-height="1021"
     id="namedview1901"
     showgrid="false"
     showguides="true"
     inkscape:measure-start="25,55"
     inkscape:measure-end="25,-15"
     inkscape:zoom="17.04"
     inkscape:cx="25"
     inkscape:cy="26.202603"
     inkscape:window-x="1912"
     inkscape:window-y="303"
     inkscape:window-maximized="1"
     inkscape:current-layer="layer3">
    <inkscape:grid
       type="xygrid"
       id="grid6135" />
  </sodipodi:namedview>
  <defs
     id="defs2" />
  <metadata
     id="metadata5">
    <rdf:RDF>
      <cc:Work
         rdf:about="">
        <dc:format>image/svg+xml</dc:format>
        <dc:type
           rdf:resource="http://purl.org/dc/dcmitype/StillImage" />
        <dc:title></dc:title>
      </cc:Work>
    </rdf:RDF>
  </metadata>
  <g
     transform="translate(-2.9314453e-7,-283.77081)"
     id="layer1" />
  <path
     inkscape:connector-curvature="0"
     style="fill:#ff0000;fill-opacity:0;fill-rule:evenodd;stroke-width:0.44928297"
     d="m 17.065624,-20.902083 a 17.065622,17.065622 0 0 0 -3.436999,0.351916 l -0.492993,6.185153 a 11.24479,11.24479 0 0 1 3.929992,-0.716236 11.24479,11.24479 0 0 1 5.239474,1.306897 l 5.921601,-2.944006 a 17.065622,17.065622 0 0 0 -11.161075,-4.183724 z m -5.654435,0.98547 A 17.065622,17.065622 0 0 0 0.94826223,-9.4211302 l 5.04827047,3.6814291 a 11.24479,11.24479 0 0 1 4.8808393,-7.4780969 z m 18.442285,4.801774 -5.493205,2.730582 a 11.24479,11.24479 0 0 1 3.903639,7.6031537 l 5.576919,3.97340084 A 17.065622,17.065622 0 0 0 34.131249,-3.8364582 17.065622,17.065622 0 0 0 29.853474,-15.114839 Z M 0.3550168,-7.1809569 A 17.065622,17.065622 0 0 0 -2.9314453e-7,-3.8364582 17.065622,17.065622 0 0 0 4.347538,7.5163362 L 9.9792355,4.8803221 A 11.24479,11.24479 0 0 1 5.8446042,-3.1770668 Z M 28.175023,-2.1921141 A 11.24479,11.24479 0 0 1 23.080244,5.6606361 L 22.421887,12.352734 A 17.065622,17.065622 0 0 0 33.270319,1.4376385 Z M 12.13931,6.2538822 5.9980832,9.128125 a 17.065622,17.065622 0 0 0 11.0675408,4.101042 17.065622,17.065622 0 0 0 3.129525,-0.300758 L 20.802347,6.7561777 A 11.24479,11.24479 0 0 1 17.065624,7.4083333 11.24479,11.24479 0 0 1 12.13931,6.2538822 Z"
     id="path831" />
  <g
     inkscape:groupmode="layer"
     id="layer3"
     inkscape:label="Layer 1">
    <g
       id="g6242">
      <circle
         r="6.6068196"
         cy="6.6223469"
         cx="6.6068196"
         id="path6157"
         style="fill:#fbffff;fill-opacity:0.92462313;fill-rule:evenodd;stroke-width:0.26458332" />
      <g
         transform="scale(0.3875969)"
         id="g1254">
        <g
           id="g1174">
          <path
             id="path831-4"
             d="M 11.411192,0.98546991 A 17.065622,17.065622 0 0 0 0.948262,11.480954 l 5.048271,3.681428 a 11.244789,11.244789 0 0 1 4.880841,-7.4780971 z"
             style="display:inline;fill:#ff0000;fill-opacity:1;fill-rule:evenodd;stroke-width:0.44928297"
             inkscape:connector-curvature="0" />
          <path
             id="path831-8"
             d="M 17.065625,0 A 17.065622,17.065622 0 0 0 13.628627,0.351916 L 13.135634,6.537068 A 11.244789,11.244789 0 0 1 17.065625,5.820833 11.244789,11.244789 0 0 1 22.3051,7.12773 L 28.226702,4.183724 A 17.065622,17.065622 0 0 0 17.065625,0 Z"
             style="display:inline;fill:#ff7acc;fill-opacity:1;fill-rule:evenodd;stroke-width:0.44928297"
             inkscape:connector-curvature="0" />
          <path
             id="path831-5"
             d="m 29.853474,5.7872427 -5.493205,2.730583 a 11.244789,11.244789 0 0 1 3.903639,7.6031543 l 5.576919,3.9734 A 17.065622,17.065622 0 0 0 34.13125,17.065625 17.065622,17.065622 0 0 0 29.853474,5.7872427 Z"
             style="display:inline;fill:#cc7ae2;fill-opacity:1;fill-rule:evenodd;stroke-width:0.44928297"
             inkscape:connector-curvature="0" />
          <path
             id="path831-9"
             d="m 28.175025,18.709968 a 11.244789,11.244789 0 0 1 -5.09478,7.852751 l -0.658357,6.692098 A 17.065622,17.065622 0 0 0 33.270321,22.339721 Z"
             style="display:inline;fill:#41b264;fill-opacity:1;fill-rule:evenodd;stroke-width:0.44928297"
             inkscape:connector-curvature="0" />
          <path
             id="path831-0"
             d="m 8.7250493,26.327075 v 0.04237 l 0.090434,-0.04237 z m 3.4142627,0.82889 -6.1412279,2.874243 a 17.065622,17.065622 0 0 0 11.0675419,4.101042 17.065622,17.065622 0 0 0 3.129523,-0.300758 l 0.6072,-6.172231 a 11.244789,11.244789 0 0 1 -3.736723,0.652155 11.244789,11.244789 0 0 1 -4.926314,-1.154451 z m -7.8418981,1.203029 a 17.065622,17.065622 0 0 0 0.050125,0.05942 l 0.1271244,-0.05942 z"
             style="display:inline;fill:#31d1ec;fill-opacity:1;fill-rule:evenodd;stroke-width:0.44928297"
             inkscape:connector-curvature="0" />
          <path
             id="path831-49"
             d="M 0.3550182,13.721125 A 17.065622,17.065622 0 0 0 2.9314453e-7,17.065624 17.065622,17.065622 0 0 0 4.3475383,28.418419 L 9.9792365,25.782404 A 11.244789,11.244789 0 0 1 5.8446063,17.725015 Z m 9.9239408,18.979202 -0.0077,0.0036 a 17.065622,17.065622 0 0 0 0.0077,0.0041 z"
             style="display:inline;fill:#f2e415;fill-opacity:1;fill-rule:evenodd;stroke-width:0.44928297"
             inkscape:connector-curvature="0" />
        </g>
        <g
           id="g1234">
          <g
             style="opacity:1"
             id="g1220">
            <g
               id="g1208"
               style="opacity:1">
              <g
                 id="g1198">
                <g
                   id="g1192"
                   transform="translate(-27.307039,-0.56653678)">
                  <circle
                     r="8.4666662"
                     cy="17.764454"
                     cx="44.240372"
                     id="path1176"
                     style="fill:#dedede;fill-opacity:1;fill-rule:evenodd;stroke-width:0.27249211" />
                  <circle
                     r="6.7468748"
                     cy="17.764452"
                     cx="44.240372"
                     id="path1178"
                     style="fill:#737373;fill-opacity:1;fill-rule:evenodd;stroke-width:0.30095163" />
                </g>
                <circle
                   style="opacity:0.99299999;fill:#4b4b4b;fill-opacity:1;fill-rule:evenodd;stroke-width:0.2767441"
                   id="path1184"
                   cx="16.933743"
                   cy="17.197508"
                   r="5.9257522" />
              </g>
              <circle
                 r="3.3450227"
                 cy="17.199873"
                 cx="16.931377"
                 id="path1200"
                 style="fill:#191919;fill-opacity:1;fill-rule:evenodd;stroke-width:0.28143576" />
            </g>
            <ellipse
               style="fill:#bebebe;fill-opacity:1;fill-rule:evenodd;stroke-width:0.27611426"
               id="path1210"
               cx="15.703579"
               cy="14.722106"
               rx="1.6424662"
               ry="1.7025564" />
          </g>
          <circle
             r="0.90135342"
             cy="19.769686"
             cx="18.888363"
             id="path1222"
             style="opacity:1;fill:#f0f0f0;fill-opacity:1;fill-rule:evenodd;stroke-width:0.28348213" />
        </g>
      </g>
    </g>
  </g>
</svg>
